<svg xmlns="http://www.w3.org/2000/svg" width="91.532" height="24.625" viewBox="0 0 91.532 24.625">
  <defs>
    <style>
      .cls-1 {
        fill: #3a405b;
        fill-rule: evenodd;
      }
    </style>
  </defs>
  <path id="logo.svg" class="cls-1" d="M117.037,56.425a1.735,1.735,0,0,0,.885.237,1.883,1.883,0,0,0,1.346-.409,3.028,3.028,0,0,0,.687-1.1,13.946,13.946,0,0,0,.514-1.518q0.251-.885.489-1.9t0.449-2.072q0.21-1.056.422-2.059a12.074,12.074,0,0,0,4.594-1.083,12.52,12.52,0,0,0,3.405-2.31,10.753,10.753,0,0,0,2.191-2.97,9.242,9.242,0,0,0,.951-3.089,7.566,7.566,0,0,0-.079-1.847,5.748,5.748,0,0,0-.7-2.007,4.678,4.678,0,0,0-1.558-1.61,4.85,4.85,0,0,0-2.679-.66,13.536,13.536,0,0,0-3.036.317,14.653,14.653,0,0,0-2.4.753,11.653,11.653,0,0,0-1.729.884q-0.7.45-1.043,0.687a1.2,1.2,0,0,0-.66.871,2.173,2.173,0,0,0,.159.818,2.06,2.06,0,0,0,.185.343,2.182,2.182,0,0,0,.528.634q0.449-.475.924-0.911c0.316-.291.615-0.55,0.9-0.779a9.218,9.218,0,0,1,.977-0.713q-0.184.661-.5,1.849t-0.712,2.653q-0.4,1.465-.819,3.089t-0.831,3.155q-0.411,1.531-.753,2.878t-0.554,2.218a21.229,21.229,0,0,1-.766,2.587,9.788,9.788,0,0,1-.673,1.452,2.793,2.793,0,0,1-.528.686c-0.149.123-.26,0.211-0.33,0.264A2.78,2.78,0,0,0,117.037,56.425Zm5.954-14.731q0.237-1.083.646-2.8t1.043-4.277a1,1,0,0,0-.237-0.449,0.524,0.524,0,0,0-.185-0.132,9.259,9.259,0,0,1,1.267-.475,4.618,4.618,0,0,1,1.294-.185,4.392,4.392,0,0,1,1.372.225,2.972,2.972,0,0,1,1.215.765,3.5,3.5,0,0,1,.805,1.426,5.592,5.592,0,0,1,.145,2.2,8.71,8.71,0,0,1-.594,2.495,8.59,8.59,0,0,1-1.148,2.006,9.456,9.456,0,0,1-1.518,1.558,11.393,11.393,0,0,1-1.7,1.148,9.977,9.977,0,0,1-1.742.752,10.227,10.227,0,0,1-1.584.383q0.158-.845.277-1.518t0.2-1.1q0.157-.765.449-2.032h0ZM142.052,47q0.87-.528,1.61-1.083t1.28-1.03a8.032,8.032,0,0,0,.674-0.634,1.325,1.325,0,0,0,.29-0.528,0.509,0.509,0,0,0-.026-0.37,0.241,0.241,0,0,0-.264-0.105,0.945,0.945,0,0,0-.449.264,8.014,8.014,0,0,1-.845.713q-0.528.4-1.148,0.778t-1.281.727a13.093,13.093,0,0,1-1.267.58c0.017-.141.035-0.312,0.053-0.515s0.026-.374.026-0.515a3.965,3.965,0,0,0-1.175-2.957,3.644,3.644,0,0,0-1-.713,2.641,2.641,0,0,0-.858-0.264c-0.053-.017-0.1-0.035-0.145-0.052a0.38,0.38,0,0,0-.145-0.027,4.219,4.219,0,0,0-.977.119,4.078,4.078,0,0,0-.937.343,2.88,2.88,0,0,0-.766.568,2.169,2.169,0,0,0-.488.792,6.212,6.212,0,0,0-.779,1.161,8.619,8.619,0,0,0-.541,1.268,9.916,9.916,0,0,0-.33,1.241,5.834,5.834,0,0,0-.119,1.108q0,0.713.066,1.531a4.6,4.6,0,0,0,.37,1.505,2.841,2.841,0,0,0,.924,1.148,2.794,2.794,0,0,0,1.7.462,4.049,4.049,0,0,0,1.7-.356,4.661,4.661,0,0,0,1.4-.99,6.182,6.182,0,0,0,1.07-1.5,9.179,9.179,0,0,0,.712-1.875A8.273,8.273,0,0,0,142.052,47Zm-5.267-4a1.843,1.843,0,0,1,.963-0.277,0.675,0.675,0,0,1,.542.277,2.28,2.28,0,0,1,.369.713,4.418,4.418,0,0,1,.2.963,5.063,5.063,0,0,1,0,1.03,2.14,2.14,0,0,1-.066.488c-0.044.185-.092,0.392-0.145,0.62-0.088.018-.176,0.031-0.264,0.04a2.593,2.593,0,0,1-.264.013,2.705,2.705,0,0,1-1.28-.251A1.654,1.654,0,0,1,136.164,46a2.141,2.141,0,0,1-.264-0.831,7.837,7.837,0,0,1-.052-0.884,1.569,1.569,0,0,1,.079-0.5A3.214,3.214,0,0,1,136.785,43Zm-2.442,4.422q0.105-.527.264-1.082a3.915,3.915,0,0,0,1.122,1.518,2.644,2.644,0,0,0,1.729.594c0.141,0,.268,0,0.383-0.013s0.233-.021.356-0.039a7.315,7.315,0,0,1-.435.964,4.4,4.4,0,0,1-.568.818,2.793,2.793,0,0,1-.713.581,1.737,1.737,0,0,1-.871.224,1.02,1.02,0,0,1-.686-0.224,1.6,1.6,0,0,1-.423-0.581,2.8,2.8,0,0,1-.211-0.818,8.063,8.063,0,0,1-.053-0.937A5.087,5.087,0,0,1,134.343,47.422Zm8.276,3.789q0.332-.541.806-1.32t1.016-1.676q0.54-.9,1.03-1.717t0.858-1.425q0.369-.606.475-0.792a2.918,2.918,0,0,1,.449.158,1.411,1.411,0,0,0,.58.106q0.238,0,.357-0.013a1.838,1.838,0,0,1,.185-0.013,0.671,0.671,0,0,0,.132-0.013,1.3,1.3,0,0,1,.224-0.013,0.365,0.365,0,0,1,.343.184,0.843,0.843,0,0,1,.106.422,2.107,2.107,0,0,1-.277.911q-0.278.541-.726,1.307c-0.124.246-.26,0.5-0.41,0.753s-0.29.51-.422,0.765-0.247.5-.343,0.739a2.273,2.273,0,0,0-.172.673,2.688,2.688,0,0,0,.093.858,2.473,2.473,0,0,0,.4.845,2.348,2.348,0,0,0,.726.647,2.217,2.217,0,0,0,1.135.264,2.9,2.9,0,0,0,1.386-.4,8.535,8.535,0,0,0,1.452-1.017,13.484,13.484,0,0,0,1.386-1.373q0.66-.752,1.2-1.465t0.924-1.293q0.382-.581.541-0.845a1,1,0,0,0,.2-0.633,0.4,0.4,0,0,0-.2-0.317,0.445,0.445,0,0,0-.369,0,0.685,0.685,0,0,0-.344.29q-0.157.211-.488,0.686t-0.805,1.07q-0.475.594-1.03,1.215a15.316,15.316,0,0,1-1.122,1.135,7.419,7.419,0,0,1-1.109.845,1.942,1.942,0,0,1-.99.33,0.872,0.872,0,0,1-.739-0.211,1.461,1.461,0,0,1-.185-0.554,2.055,2.055,0,0,1,.317-1.188q0.369-.66.739-1.188,0.608-.845,1.03-1.558a2.168,2.168,0,0,0,.343-1.373,4.671,4.671,0,0,0-.119-0.7,2.778,2.778,0,0,0-.277-0.712,1.807,1.807,0,0,0-.475-0.555,1.172,1.172,0,0,0-.739-0.224,2,2,0,0,0-.541.053,2.291,2.291,0,0,1-.594.053,1,1,0,0,1-.423-0.066,1.886,1.886,0,0,1-.211-0.118,2.55,2.55,0,0,0,.4-0.95,2.6,2.6,0,0,0,.053-0.871,2.256,2.256,0,0,0-.357-0.977,1.14,1.14,0,0,0-1.042-.475,1.267,1.267,0,0,0-.819.37,4.4,4.4,0,0,0-.765.885,5.356,5.356,0,0,0-.555,1.069,1.839,1.839,0,0,0-.158.9,1.06,1.06,0,0,0,.158.515q0.1,0.119.4,0.383-0.158.29-.5,0.938T143.992,46q-0.41.819-.858,1.729l-0.832,1.69q-0.381.778-.66,1.333t-0.356.713a0.788,0.788,0,0,0-.106.528,0.372,0.372,0,0,0,.225.277,0.527,0.527,0,0,0,.4-0.026,0.93,0.93,0,0,0,.409-0.383Q142.29,51.752,142.619,51.211Zm20.764-5.174q-0.4.514-.924,1.148t-1.148,1.293q-0.621.66-1.228,1.215a6.914,6.914,0,0,1-1.175.884,1.572,1.572,0,0,1-.963.277,1.372,1.372,0,0,1-.845-0.316,2,2,0,0,1-.489-0.858,4,4,0,0,1-.039-1.729q0.685-1.584,1.241-2.983t0.95-2.482q0.448-1.24.792-2.3a7.554,7.554,0,0,0,.251-0.858q0.091-.409.2-0.831c0.141,0,.277,0,0.409-0.014s0.251-.013.357-0.013q0.844,0,1.478.053t1.1,0.105a7.055,7.055,0,0,1,.792.132,4.3,4.3,0,0,0,.594.106,0.572,0.572,0,0,0,.475-0.106,0.9,0.9,0,0,0,.3-0.383,0.982,0.982,0,0,0,.08-0.436,0.263,0.263,0,0,0-.2-0.264q-0.186-.053-0.555-0.2a7.537,7.537,0,0,0-.977-0.29q-0.608-.146-1.465-0.264a14.436,14.436,0,0,0-1.967-.119,14.274,14.274,0,0,0,.291-2.217,2.476,2.476,0,0,0-.106-1.082,0.638,0.638,0,0,0-.422-0.2,2.326,2.326,0,0,0-.607,0,3.051,3.051,0,0,0-.594.132,0.646,0.646,0,0,0-.357.224,5.737,5.737,0,0,0-.594,1.307q-0.33.938-.673,2.2c-0.3.053-.6,0.1-0.911,0.132s-0.629.063-.964,0.079a11.878,11.878,0,0,1-1.267-.013q-0.581-.04-1.082-0.093a0.63,0.63,0,0,0-.357.145,1.378,1.378,0,0,0-.33.343,0.957,0.957,0,0,0-.158.4,0.283,0.283,0,0,0,.185.3,6.806,6.806,0,0,0,2.719.58A7.1,7.1,0,0,0,156.018,39l0.9-.106q-0.37,1.532-.7,3.181t-0.594,3.089q-0.264,1.44-.422,2.534t-0.185,1.518a3.415,3.415,0,0,0,.079,1.1,3.263,3.263,0,0,0,.462,1.1,2.735,2.735,0,0,0,.911.845,2.819,2.819,0,0,0,1.452.343,2.762,2.762,0,0,0,1.5-.66,13.567,13.567,0,0,0,1.848-1.677,24.456,24.456,0,0,0,1.809-2.178,17.307,17.307,0,0,0,1.386-2.165,1.064,1.064,0,0,0,.145-0.5,0.344,0.344,0,0,0-.119-0.264,0.322,0.322,0,0,0-.277-0.039,0.442,0.442,0,0,0-.277.2Q163.779,45.522,163.383,46.036ZM162.2,52.029a1.766,1.766,0,0,0,.317.278,1.671,1.671,0,0,0,.37.158,3.242,3.242,0,0,0,.4.027,1.289,1.289,0,0,0,.343-0.053,0.736,0.736,0,0,0,.317-0.185q1.214-4.779,2.019-7.92t1.281-4.963q0.553-2.138.871-3.273,0.132-.58.237-1.083c0.036-.281.057-0.554,0.066-0.818a0.645,0.645,0,0,0-.145-0.528,0.3,0.3,0,0,0-.237-0.171,1.905,1.905,0,0,0-.4-0.04,3.03,3.03,0,0,0-.528.053c-0.194.035-.388,0.079-0.581,0.132q-0.238.053-.489,0.132a2.046,2.046,0,0,0-.462.211,3.907,3.907,0,0,1,.08.819,7.057,7.057,0,0,1-.053.871c-0.036.317-.079,0.642-0.132,0.976q-0.159.713-.581,2.561-0.371,1.558-1.069,4.514t-1.861,7.841A1.084,1.084,0,0,0,162.2,52.029Zm20-6.032a0.633,0.633,0,0,0-.04-0.475,0.285,0.285,0,0,0-.317-0.119,0.778,0.778,0,0,0-.422.277q-0.159.211-.515,0.66t-0.805,1.03q-0.45.581-.964,1.2t-0.99,1.134a7.621,7.621,0,0,1-.9.845,1.251,1.251,0,0,1-.686.33,0.732,0.732,0,0,1-.488-0.145,0.827,0.827,0,0,1-.251-0.383,1.908,1.908,0,0,1-.093-0.515,3.19,3.19,0,0,1,.014-0.515q0.078-.4.132-0.66c0.035-.176.066-0.33,0.092-0.462s0.053-.264.079-0.4,0.057-.277.093-0.436q0.263-1.214.422-1.98t0.238-1.214a4.387,4.387,0,0,0,.079-0.621,0.587,0.587,0,0,0-.027-0.224,0.553,0.553,0,0,0-.211-0.027c-0.088,0-.216.009-0.383,0.027a6.138,6.138,0,0,0-.62.105,1.894,1.894,0,0,0,.436-1.36,1.269,1.269,0,0,0-.489-0.779,3.206,3.206,0,0,0-1.161-.422,2.963,2.963,0,0,0-1.532.422,7.823,7.823,0,0,0-1.874,1.413,11.718,11.718,0,0,0-1.756,2.257,9.8,9.8,0,0,0-1.175,2.931,6.339,6.339,0,0,0-.211,2.046,3.678,3.678,0,0,0,.37,1.4,1.961,1.961,0,0,0,.713.792,1.565,1.565,0,0,0,.792.251,5.7,5.7,0,0,0,1.584-.343,6.279,6.279,0,0,0,1.452-.831,5.512,5.512,0,0,0,1.4-1.623,4.327,4.327,0,0,0,.092,1.188,4.674,4.674,0,0,0,.251.766,1.4,1.4,0,0,0,.4.528,1.565,1.565,0,0,0,.555.224,2.428,2.428,0,0,0,.673.039,3.153,3.153,0,0,0,.7-0.132,2.783,2.783,0,0,0,.608-0.264,6,6,0,0,0,.99-0.911q0.594-.647,1.214-1.425t1.2-1.558q0.581-.778.951-1.307A2,2,0,0,0,182.194,46Zm-8.343,2.323a6.577,6.577,0,0,1-.5.634,6.173,6.173,0,0,1-.686.66,4.363,4.363,0,0,1-.766.515,1.773,1.773,0,0,1-.752.211,0.861,0.861,0,0,1-.66-0.277,1.168,1.168,0,0,1-.211-0.674,5.1,5.1,0,0,1,.039-1.2,9.379,9.379,0,0,1,.33-1.465,7.058,7.058,0,0,1,.634-1.465,8.975,8.975,0,0,1,1.676-2.284q0.726-.62,1.017-0.383a0.62,0.62,0,0,1,.1.291,1.465,1.465,0,0,1-.013.436,2.4,2.4,0,0,1-.251.7,3.633,3.633,0,0,1,.423-0.079,1.4,1.4,0,0,0,.343-0.079,2.438,2.438,0,0,1,.29-0.079c0.07-.017.084,0.118,0.04,0.409s-0.11.656-.2,1.1-0.194.9-.317,1.373-0.229.889-.317,1.241A1.393,1.393,0,0,1,173.851,48.32Zm15.259,3.973a7.8,7.8,0,0,0,1.307-.924,12.356,12.356,0,0,0,1.267-1.268q0.607-.7,1.136-1.386t0.91-1.294q0.383-.607.568-0.977a1.651,1.651,0,0,0,.211-0.7,0.407,0.407,0,0,0-.119-0.356,0.325,0.325,0,0,0-.33.027,1.329,1.329,0,0,0-.448.449q-0.343.528-1,1.386t-1.4,1.676a12.639,12.639,0,0,1-1.465,1.4,2.138,2.138,0,0,1-1.2.581,0.442,0.442,0,0,1-.515-0.423,2.868,2.868,0,0,1,.119-1q0.29-.9.488-1.65t0.33-1.307l0.291-1.161a4.811,4.811,0,0,0,.2-1.558,3.585,3.585,0,0,0-.264-1.227,1.932,1.932,0,0,0-.621-0.806,1.479,1.479,0,0,0-.9-0.29,2.967,2.967,0,0,0-1.189.251,5.131,5.131,0,0,0-1.095.647,6.979,6.979,0,0,0-.951.885,11.988,11.988,0,0,0-.778.964q0.158-.448.264-0.872,0.1-.369.211-0.7c0.07-.219.132-0.392,0.185-0.514a1.088,1.088,0,0,0-.357-0.2,2.21,2.21,0,0,0-.383-0.093,3.536,3.536,0,0,0-.422-0.026,1.847,1.847,0,0,0-.449.106,2.326,2.326,0,0,0-.409.145,1.691,1.691,0,0,0-.383.251q-0.264,1-.462,1.848t-0.33,1.478q-0.157.74-.29,1.347-0.186.766-.4,1.61t-0.409,1.6q-0.2.752-.344,1.306t-0.171.713q-0.053.238,0.277,0.238a2.406,2.406,0,0,0,.779-0.158,4.186,4.186,0,0,0,.845-0.41,1.025,1.025,0,0,0,.475-0.515c0.053-.246.114-0.506,0.185-0.779s0.145-.589.224-0.951,0.172-.765.277-1.215,0.238-.971.4-1.57q0.448-.66.911-1.28a10.948,10.948,0,0,1,.924-1.1,4.836,4.836,0,0,1,.911-0.753,1.656,1.656,0,0,1,.871-0.277,0.446,0.446,0,0,1,.449.383,2.827,2.827,0,0,1,.053.977,9.443,9.443,0,0,1-.225,1.32q-0.171.727-.369,1.452t-0.383,1.346q-0.184.62-.264,0.99a2.646,2.646,0,0,0-.053,1.043,2.008,2.008,0,0,0,.343.858,1.925,1.925,0,0,0,.7.594,2.253,2.253,0,0,0,1.043.224A2.55,2.55,0,0,0,189.11,52.293Zm13.438-8.131q0.753-1.464,1.333-2.93a24.428,24.428,0,0,0,.938-2.838,12.487,12.487,0,0,0,.409-2.535,10.607,10.607,0,0,0,0-1.5,2.379,2.379,0,0,0-.2-0.832,0.639,0.639,0,0,0-.357-0.343,1.6,1.6,0,0,0-.475-0.066,1.417,1.417,0,0,0-.449.08,2.741,2.741,0,0,0-.448.158,2.33,2.33,0,0,0-.5.316q-0.423,1.4-.766,2.667t-0.607,2.244q-0.291,1.134-.554,2.112-0.159.66-.317,1.4t-0.343,1.5a4.853,4.853,0,0,0-.251-0.792,3.6,3.6,0,0,0-.436-0.779,2.215,2.215,0,0,0-.633-0.58,1.551,1.551,0,0,0-.819-0.224,4.019,4.019,0,0,0-2.046.594,6.53,6.53,0,0,0-1.821,1.611,9.042,9.042,0,0,0-1.334,2.389,9.428,9.428,0,0,0-.607,2.9,4.812,4.812,0,0,0,.159,1.663,3.4,3.4,0,0,0,.541,1.109,1.957,1.957,0,0,0,.752.607,2,2,0,0,0,.792.185,3.982,3.982,0,0,0,2.152-.726,11.236,11.236,0,0,0,2.231-1.967c-0.036.3-.062,0.51-0.079,0.634a2.148,2.148,0,0,0,.118.845,2.649,2.649,0,0,0,.41.765,2.327,2.327,0,0,0,.594.554,1.272,1.272,0,0,0,.7.211,2.441,2.441,0,0,0,1.122-.33,8.89,8.89,0,0,0,1.294-.858,13.918,13.918,0,0,0,1.346-1.214q0.674-.686,1.281-1.4t1.108-1.386q0.5-.673.819-1.174a1.032,1.032,0,0,0,.211-0.528,0.341,0.341,0,0,0-.106-0.29,0.354,0.354,0,0,0-.277-0.053,0.606,0.606,0,0,0-.33.185q-0.132.132-.488,0.58t-0.871,1.043q-0.516.594-1.122,1.255t-1.215,1.214a10.6,10.6,0,0,1-1.148.924,1.736,1.736,0,0,1-.911.37,0.777,0.777,0,0,1-.581-0.291,1.311,1.311,0,0,1-.237-0.95q0.025-.449.145-1.188t0.251-1.558A29.637,29.637,0,0,0,202.548,44.162Zm-3.933,4.053a14.568,14.568,0,0,1-1,1.082,7.273,7.273,0,0,1-1.109.9,1.945,1.945,0,0,1-1.042.369,1.15,1.15,0,0,1-1-.554,3.154,3.154,0,0,1-.316-1.822,6.51,6.51,0,0,1,.422-1.795,10.118,10.118,0,0,1,.924-1.887,8.193,8.193,0,0,1,1.188-1.5,1.82,1.82,0,0,1,1.241-.621,0.767,0.767,0,0,1,.66.33,2.367,2.367,0,0,1,.356.765,4.224,4.224,0,0,1,.145.845c0.018,0.274.027,0.462,0.027,0.568a0.8,0.8,0,0,0,.1.462,0.3,0.3,0,0,0,.4.013,0.837,0.837,0,0,0,.092-0.053,0.9,0.9,0,0,1,.092-0.053q-0.132.528-.224,1.03t-0.2,1Q199.076,47.66,198.615,48.215Z" transform="translate(-116.281 -32.031)"/>
</svg>
