<svg xmlns="http://www.w3.org/2000/svg" width="18.09" height="17" viewBox="0 0 18.09 17">
  <defs>
    <style>
      .cls-1 {
        fill: #343e5c;
        fill-rule: evenodd;
      }
    </style>
  </defs>
  <path id="cart-icon.svg" class="cls-1" d="M1100,40.052l-1,2.988c-0.37.838-.9,1.991-2,1.991h-9.64l0.12,1H1100l-1,1.991h-12.65l-0.64.075-1.19-10.033H1083a1,1,0,0,1-1-1,0.974,0.974,0,0,1,.9-1.058l3.39-.013,0.26,2.15a1.145,1.145,0,0,1,.45-0.083h12C1100.1,38.061,1100,38.952,1100,40.052Zm-12,8.962a1.992,1.992,0,1,1-2,1.992A2,2,0,0,1,1088,49.015Zm8,0a1.992,1.992,0,1,1-2,1.992A2,2,0,0,1,1096,49.015Z" transform="translate(-1082 -36)"/>
</svg>
