<svg xmlns="http://www.w3.org/2000/svg" width="10" height="7" viewBox="0 0 10 7">
  <defs>
    <style>
      .cls-1 {
        fill: #fff;
        fill-rule: evenodd;
      }
    </style>
  </defs>
  <path id="check-icon.svg" class="cls-1" d="M899.317,202.888a1.086,1.086,0,0,1,1.556,0l3.111,3.168a1.136,1.136,0,0,1,0,1.586,1.086,1.086,0,0,1-1.556,0l-3.111-3.17A1.136,1.136,0,0,1,899.317,202.888Zm3.111,4.754a1.138,1.138,0,0,1,0-1.586L907.1,201.3a1.087,1.087,0,0,1,1.556,0,1.136,1.136,0,0,1,0,1.586l-4.667,4.754A1.086,1.086,0,0,1,902.428,207.642Z" transform="translate(-899 -201)"/>
</svg>
